PathFileType	4	(X/Y/Z)	./resultDataOpenSim/trcMotMarkerGrf/sub06/qtm-04-05.trc
DataRate	CameraRate	NumFrames	NumMarkers	Units	OrigDataRate	OrigDataStartFrame	OrigNumFrames
250.000000	250.000000	13	24	m	250.000000	67	530
Frame#	Time	L.Toe.Tip			R.Toe.Tip			L.Ankle.Lat			R.Ankle.Lat			L.Ankle.Med			R.Ankle.Med			L.Heel			R.Heel			L.Knee.Lat			R.Knee.Lat			L.Knee.Med			R.Knee.Med			L.Thigh.Upper			R.Thigh.Upper			L.ASIS			R.ASIS			V.Sacral			L.Acromium			R.Acromium			C7			L.Elbow			R.Elbow			L.Wrist.Lat			R.Wrist.Lat
		X1	Y1	Z1	X2	Y2	Z2	X3	Y3	Z3	X4	Y4	Z4	X5	Y5	Z5	X6	Y6	Z6	X7	Y7	Z7	X8	Y8	Z8	X9	Y9	Z9	X10	Y10	Z10	X11	Y11	Z11	X12	Y12	Z12	X13	Y13	Z13	X14	Y14	Z14	X15	Y15	Z15	X16	Y16	Z16	X17	Y17	Z17	X18	Y18	Z18	X19	Y19	Z19	X20	Y20	Z20	X21	Y21	Z21	X22	Y22	Z22	X23	Y23	Z23	X24	Y24	Z24

67	0.264	-1.2609505	0.07879908	-0.080278725	-0.79726571	0.03564202	0.13135848	-1.2733445	0.20757792	-0.10205708	-0.93209564	0.061753215	0.15352275	-1.2587133	0.21102593	-0.019858046	-0.91301508	0.080758035	0.066926843	-1.3283923	0.25789985	-0.054019224	-0.98740733	0.040436203	0.09149721	-0.94594182	0.3900334	-0.11535047	-0.8533061	0.44131222	0.18101192	-0.94315222	0.37475953	0.0052989514	-0.8840188	0.42893542	0.056656815	-1.0155476	0.77970738	-0.11113547	-0.97340094	0.79750375	0.23342068	-0.93638532	0.83022576	-0.077925023	-0.90048141	0.84551071	0.1656967	-1.1000761	0.91637664	0.067481057	-0.96857277	1.3209324	-0.12245295	-0.95395109	1.3012453	0.23938683	-1.0357781	1.3542153	0.061926032	-0.99186185	0.99649143	-0.1809111	-1.0521728	0.99988075	0.29876544	-0.79152781	0.84817509	-0.16316754	-0.92621655	0.79668837	0.34243805
68	0.268	-1.2433703	0.078008325	-0.079267467	-0.79732732	0.035652498	0.13139872	-1.2590238	0.20627634	-0.10100189	-0.93205945	0.061817185	0.15356293	-1.2444076	0.21021001	-0.018819933	-0.91306345	0.080970166	0.067062324	-1.3153024	0.25555171	-0.052876418	-0.98750987	0.040502722	0.091626601	-0.93417516	0.39299345	-0.11449609	-0.85237226	0.44150828	0.18123281	-0.9316521	0.37812252	0.0066582286	-0.88351912	0.42935067	0.056899523	-1.0093869	0.78203708	-0.11110759	-0.9689251	0.79903377	0.23315764	-0.93058577	0.83236784	-0.077522	-0.89546015	0.847406	0.16638454	-1.0936454	0.91821887	0.068876094	-0.96347811	1.32321	-0.12223129	-0.94808096	1.3035649	0.23946621	-1.0302144	1.3563179	0.062305443	-0.98869154	0.99904932	-0.18111899	-1.0450611	1.0016138	0.29959441	-0.78968595	0.84862117	-0.164161	-0.91574238	0.80011738	0.34266627
69	0.272	-1.2254078	0.077196118	-0.078215613	-0.79738986	0.035662292	0.13144168	-1.2444837	0.2048403	-0.099953631	-0.93216161	0.061800665	0.15356198	-1.2298216	0.20930418	-0.017792963	-0.91310379	0.081196006	0.067245212	-1.3021381	0.25287177	-0.051796212	-0.98762847	0.040566735	0.091781494	-0.92245926	0.39604211	-0.11360589	-0.85130069	0.44179593	0.18146831	-0.91994518	0.38160162	0.0078603958	-0.88331346	0.42972456	0.057107669	-1.0032165	0.78436639	-0.11118929	-0.96514897	0.80049719	0.23244496	-0.92485145	0.83451443	-0.077249385	-0.89030309	0.84929515	0.16708961	-1.0876549	0.92012527	0.069531203	-0.95838114	1.32548	-0.1220129	-0.9422045	1.3058865	0.23952309	-1.0246618	1.3584097	0.06268564	-0.98525916	1.0016031	-0.1806261	-1.0381404	1.0033303	0.30028838	-0.78787635	0.84912714	-0.16518518	-0.90529275	0.80361713	0.34284855
70	0.276	-1.2070875	0.076378234	-0.077114275	-0.79745164	0.035673828	0.13149204	-1.2297694	0.20326279	-0.098879745	-0.93254251	0.061640279	0.15350787	-1.2148697	0.20833574	-0.016811834	-0.91313202	0.081436393	0.067455992	-1.2887431	0.24983756	-0.050974509	-0.98774234	0.040659817	0.091933866	-0.91079512	0.39917576	-0.11268405	-0.85023486	0.44213203	0.18172416	-0.90810925	0.38517537	0.0089575115	-0.88328066	0.43006224	0.057266501	-0.99699058	0.786716	-0.11116857	-0.9615621	0.80177267	0.23131081	-0.91910801	0.83669363	-0.077002665	-0.88480126	0.85126804	0.16778518	-1.0820331	0.92209628	0.069728503	-0.95327972	1.3277415	-0.12179394	-0.93634235	1.3082042	0.23956295	-1.0191203	1.3604818	0.063062041	-0.98161402	1.0041641	-0.17966922	-1.031303	1.0050552	0.30092895	-0.78609796	0.84968109	-0.1662448	-0.89485142	0.80718944	0.34299051
71	0.28	-1.1884538	0.07555668	-0.075956301	-0.79751248	0.035689929	0.13155284	-1.2149237	0.20154206	-0.097765255	-0.93310143	0.061400792	0.15344029	-1.1995139	0.20731395	-0.015928276	-0.91315377	0.081685262	0.067670952	-1.2751546	0.24652332	-0.050305355	-0.98783962	0.040788849	0.09206902	-0.89918915	0.40237454	-0.11173391	-0.84935871	0.4424458	0.1819783	-0.89631122	0.38886184	0.010039492	-0.88323581	0.4303993	0.057371944	-0.99066506	0.78910449	-0.11086367	-0.95778254	0.80278654	0.22995263	-0.91331916	0.83891336	-0.076703882	-0.87883216	0.85338078	0.1684545	-1.0765405	0.92409783	0.069759484	-0.94817503	1.3299928	-0.1215702	-0.93050365	1.3105101	0.23959341	-1.0135934	1.3625281	0.06342734	-0.97784413	1.0067221	-0.17853048	-1.0243895	1.006826	0.30167899	-0.78434918	0.8502663	-0.16733291	-0.88442119	0.81082694	0.34309219
72	0.284	-1.1695487	0.074735398	-0.074741775	-0.79757305	0.035711721	0.13162613	-1.1999605	0.19967471	-0.096613669	-0.93356557	0.061228295	0.15342833	-1.1839662	0.20619085	-0.015093048	-0.91317549	0.081934513	0.067881744	-1.2615328	0.24301012	-0.049520789	-0.98792196	0.040940105	0.092188302	-0.88765052	0.40562481	-0.1107497	-0.8488484	0.44268217	0.18215141	-0.88466285	0.39267504	0.011153745	-0.8830901	0.4307687	0.057447535	-0.98424719	0.79152369	-0.11032131	-0.9536354	0.80360851	0.22868006	-0.90752601	0.8411581	-0.076350117	-0.87265761	0.85555955	0.16908727	-1.070989	0.92609726	0.069721531	-0.94307141	1.3322288	-0.12134114	-0.92467982	1.3127972	0.2396183	-1.0080842	1.364543	0.063775842	-0.97408602	1.0092815	-0.17744049	-1.0173591	1.0086534	0.30259737	-0.78262496	0.85087117	-0.16843697	-0.87401586	0.81451939	0.34315514
73	0.288	-1.1503947	0.073938034	-0.07347934	-0.79763514	0.03573911	0.13171483	-1.1848649	0.19764373	-0.095439895	-0.93378739	0.061199821	0.15350924	-1.1687802	0.20484878	-0.014090882	-0.91319875	0.082184768	0.068090879	-1.2479157	0.23929832	-0.04854805	-0.98799756	0.041099978	0.09229798	-0.87618544	0.40892813	-0.1097212	-0.84868157	0.44286275	0.18218887	-0.8732083	0.39660642	0.012312825	-0.88294533	0.43116956	0.05753191	-0.97778459	0.79394492	-0.10977337	-0.94914231	0.80439461	0.22777741	-0.90179928	0.84340652	-0.075978597	-0.86673119	0.85767403	0.16966476	-1.0653599	0.92807206	0.069611307	-0.93797353	1.3344437	-0.12110978	-0.91885404	1.3150595	0.23963895	-1.0025927	1.3665195	0.064105299	-0.97048869	1.0118659	-0.17657609	-1.0102881	1.0105211	0.303628	-0.78091785	0.85149236	-0.16954607	-0.86365082	0.818259	0.34318413
74	0.292	-1.1310008	0.073198554	-0.072174591	-0.7977048	0.035770581	0.13182452	-1.1695977	0.19542238	-0.094255703	-0.93378156	0.061315522	0.15368247	-1.154328	0.20319476	-0.012739762	-0.91322174	0.082444228	0.068297368	-1.2342314	0.23536001	-0.047463487	-0.98807211	0.041268887	0.092397824	-0.86480591	0.41228606	-0.10864532	-0.84860758	0.44306337	0.18214897	-0.86196885	0.40062988	0.013513287	-0.88301272	0.43157703	0.057638542	-0.97130373	0.7963439	-0.10945487	-0.94447774	0.80527774	0.2273652	-0.89614306	0.84565057	-0.075600942	-0.86132913	0.85964494	0.17017534	-1.0598292	0.93000438	0.069481698	-0.93288455	1.3366306	-0.12087458	-0.91301248	1.3172888	0.23965519	-0.99711409	1.3684517	0.064415935	-0.96710183	1.0144834	-0.17599047	-1.0032533	1.0124066	0.30470033	-0.77921964	0.85212823	-0.17065203	-0.8533384	0.82203958	0.34318479
75	0.296	-1.1113953	0.072536531	-0.070823663	-0.79779576	0.035799227	0.1319632	-1.1541034	0.19299563	-0.093058879	-0.93358468	0.061562939	0.1539317	-1.1402837	0.2012695	-0.011116414	-0.91324618	0.082712137	0.06849791	-1.2204445	0.23119818	-0.046281823	-0.98813903	0.041458445	0.092470491	-0.85353614	0.41568864	-0.10752874	-0.84844853	0.44331376	0.18213537	-0.85099094	0.40471136	0.01473015	-0.88337805	0.43197138	0.057730927	-0.96478496	0.79871331	-0.10951905	-0.93987652	0.80629932	0.22735227	-0.89047127	0.84789722	-0.075181187	-0.85634872	0.86146896	0.17063504	-1.0545924	0.93188271	0.069433122	-0.92780342	1.3387782	-0.1206305	-0.90715765	1.3194761	0.23966754	-0.99164291	1.3703341	0.064711117	-0.96385576	1.0171132	-0.17561537	-0.99627908	1.0142905	0.30577458	-0.77753241	0.85277041	-0.17175655	-0.84308423	0.82585113	0.34315931
76	0.3	-1.0916548	0.071953245	-0.069431096	-0.79792948	0.03581131	0.1321384	-1.1383443	0.1903907	-0.091842733	-0.93326689	0.061891039	0.15421553	-1.1260231	0.19919468	-0.009444826	-0.91329135	0.082968571	0.068704522	-1.2065386	0.22681659	-0.044993728	-0.9881745	0.041672895	0.092484707	-0.84239632	0.4191165	-0.10638421	-0.84829284	0.44356641	0.18217592	-0.84035858	0.40881738	0.015918468	-0.88382859	0.43233063	0.057741861	-0.95820784	0.80106314	-0.10995641	-0.93544472	0.80742523	0.22756734	-0.88468808	0.85016199	-0.074685385	-0.85139664	0.86320745	0.17107396	-1.0496	0.93370478	0.06946134	-0.92272359	1.3408739	-0.12037743	-0.90132264	1.3216186	0.23968277	-0.98617751	1.372161	0.064995214	-0.96064887	1.0197249	-0.17534659	-0.98935783	1.0161561	0.30683485	-0.77587409	0.85340391	-0.17287363	-0.83288615	0.82967939	0.3431022
77	0.304	-1.0718751	0.071431943	-0.068022549	-0.79812049	0.035800259	0.13235105	-1.122374	0.18769325	-0.090598778	-0.93297841	0.062199721	0.15447523	-1.1112589	0.19704593	-0.0078584234	-0.91339177	0.08319015	0.068946606	-1.1924587	0.2222123	-0.04364592	-0.98814503	0.041905645	0.09242037	-0.83138587	0.42254754	-0.10521887	-0.84829013	0.44377076	0.18223034	-0.83012029	0.41292792	0.017052873	-0.88406399	0.43262113	0.05762499	-0.95161088	0.80341707	-0.11052156	-0.93106088	0.80860922	0.22793186	-0.87871714	0.85247412	-0.074113835	-0.84616097	0.86493028	0.17151462	-1.0445989	0.93547577	0.069444956	-0.91763765	1.3429093	-0.12012199	-0.89554806	1.3237176	0.2397078	-0.98071608	1.373932	0.065267441	-0.95741863	1.0222927	-0.17511134	-0.9824667	1.0179887	0.30787741	-0.77426261	0.85401708	-0.17401556	-0.82273935	0.83351253	0.34300697
78	0.308	-1.0521163	0.070941434	-0.06662536	-0.79835109	0.035788224	0.13258915	-1.1063556	0.18499815	-0.089303617	-0.9328589	0.062417379	0.15468112	-1.096079	0.194822	-0.0063602143	-0.91355193	0.083378853	0.069238539	-1.1781518	0.21740983	-0.042275451	-0.98802507	0.042154203	0.092279055	-0.82049195	0.42596412	-0.1040289	-0.8483625	0.44395259	0.18226721	-0.82015442	0.41705163	0.01819133	-0.88405577	0.43285256	0.057395096	-0.94505479	0.80578933	-0.11095507	-0.92651808	0.80982518	0.22846504	-0.87250501	0.85485759	-0.073476001	-0.84068237	0.86664219	0.17195749	-1.0394035	0.9371959	0.069300155	-0.91254342	1.3448823	-0.11987175	-0.88983694	1.3257663	0.23973641	-0.97525352	1.3756463	0.065522392	-0.95415094	1.0248023	-0.17488719	-0.97555225	1.019772	0.30890057	-0.77269897	0.85460808	-0.17518139	-0.8126419	0.83734251	0.3428743
79	0.312	-1.032383	0.0704729	-0.065258025	-0.79857814	0.035815531	0.13283589	-1.0904286	0.18233141	-0.087929621	-0.93293401	0.062547429	0.15484598	-1.0806768	0.19249202	-0.0049034974	-0.91371945	0.083563756	0.069554992	-1.1636077	0.21245057	-0.040860239	-0.98784124	0.042407733	0.092090248	-0.80970621	0.42935949	-0.10281322	-0.84829276	0.44418425	0.18228144	-0.81017872	0.42121578	0.019454754	-0.88396298	0.43310469	0.057117971	-0.93852954	0.80815637	-0.11128377	-0.92170356	0.81105816	0.22918503	-0.86612589	0.85728423	-0.07278291	-0.83519357	0.86828932	0.17237906	-1.0339918	0.93886027	0.069032755	-0.90744226	1.3467938	-0.11962791	-0.88415919	1.3277519	0.23975571	-0.96978758	1.3772908	0.065758269	-0.95085864	1.0272544	-0.17468446	-0.96851732	1.0214834	0.309898	-0.77117264	0.85518025	-0.17636152	-0.80259276	0.84116112	0.34270753
